<svg xmlns="http://www.w3.org/2000/svg" version="1.1"
    xmlns:xlink="http://www.w3.org/1999/xlink"
    xmlns:svgjs="http://svgjs.dev/svgjs" width="300" height="300" viewBox="0 0 2000 1500">
    <rect width="2000" height="1500" fill="#122023"></rect>
    <g transform="matrix(0.44603033006244425,0,0,0.44603033006244425,552.580232658313,250)">
        <svg viewBox="0 0 321 360" data-background-color="#122023" preserveAspectRatio="xMidYMid meet" height="2242" width="2000"
            xmlns="http://www.w3.org/2000/svg"
            xmlns:xlink="http://www.w3.org/1999/xlink">
            <g id="tight-bounds" transform="matrix(1,0,0,1,0.5000234999999975,0)">
                <svg viewBox="0 0 320 360" height="360" width="320">
                    <g>
                        <svg></svg>
                    </g>
                    <g>
                        <svg viewBox="0 0 320 360" height="360" width="320">
                            <g>
                                <path transform="translate(-74.99272,-51.79039) scale(4.65793,4.65793)" d="M20.6 59.9l0.8 1-0.4-1.3c-0.1-0.6-0.8 0.1-0.4 0.3M21.5 59.3c0.3 0.5 0.6 1 0.6 1.5 0 0.7 0.6 1 1.1 1.2-0.7-0.8-1.1-3-1.7-2.7M59.9 16.9c1.7 0 3.3-0.2 5.1 0.2 4.4 1.1 8.1 3.3 10.6 6.4l7 11.2c0.3 2.8 0.9 5.9 0.8 9.3 0.7 0 0.6-1 1.4-1.2-0.8 2-1.2 4.5-1.4 7.4-0.5-1.6 0-4 0.1-5.3-0.7 1.1-1.1 0.3-1.1-0.2 0.1-0.8-0.3-0.7-0.6-1-1.1-1-1.8-2.1-2.6-3.8 0.5-1.3 0.6-3.2-1-4.2-0.5-0.3-1.1-0.8-1.4-1.6-0.4-1.1-1.1-2.4-0.9-4.1 0.1-0.5-1.5 1.1-2.4 0.4-3.9-2.7-7.8-5.8-12.5-8.4-2.5 0-4.3-0.9-5.2-2-0.8-1-0.2-2.3 1-2.4 0.7 0 1.5-0.2 2.1 0.2 0.1-0.4 0.5-0.9 1-0.9M50 14.6l0.2 0.1c1 0.2 1.5 1.6 2.6 1.1 0 0.7 0.1 1.4-0.1 1.9-0.3 0.8-1.2 0.8-1.9 0.8-6.7-0.4-10.6 2.4-14.7 4.8-1.1 0.7-2.3 1.2-3.2 2.1-4.3 4-9 7.7-10.1 15.1l-0.9 8.2c-0.1 0.9-1.1 1.8-0.9 2.9l0.7 4.9c-0.7-0.7-1.1 0.2-0.9 0.6 0.1 0.3 0.5 1.3 1.1 0.4 0.8 1.5 1.6 4.4 2.7 5.7 3.4 4 7.8 7.6 11.4 11.2 0.9-0.2 1.6-0.2 1.8-0.8 0.3 0.6-0.3 1.2-0.8 1.3 1.6 1 3.4 1.9 5.8 2.1 3.1 0.2 6 0.7 8.7 1.4 1.4-0.4 2.8-0.6 4.3-0.7 0.5 0 0.8-0.8 1.4-1l0.1-1c0.6 0.9 0.5-0.3 0.1-0.9 0.7 0.6 0.9 1.1 1.2 1.5 0-0.3 0.8-1.4 0.8-0.1l0.2-1.3c0.3-0.2 0.4 1.1 0.7 0.2 0.3-0.9 0.9-0.2 1.5-0.5-0.2 0.4-0.1 1.2 0.6 0.7l0.8-0.7c0.5 1.2 1.3 0.7 1.7 0.5 4.4-2.8 8.8-6.1 13-9.4l-0.1 1.3 0.5-1.6c0.5 0.5 0.9 0.1 1.1-0.2 0.6-1 1.4-2 2.7-2.9-1.6 4.3-3.5 7.7-5.9 10.5l-1 1.2c0 0.7-0.2 1.6-1 1.7-0.4 0.1-1.2-0.2-1.8 0.4-0.3 0.4 0.7 1.2-0.1 0.6-0.7-0.5-1.4 0-2.2 0.2-0.6 0.2 0.4 0.8 0.6 1.2 0.2 0.4 0.4 0.8 0.3 1.3l-1.1-1.2c-1.3 0.7-2.1 2-3.2 3-0.5 0.4-0.3 1.1-0.3 1.7-0.7 0-1.5-0.2-1.9 0.2-0.3 0.4-0.2 1-0.2 1.6-1-0.1-1.1-1.6-2-1.3-0.9 0.2-1.9 0.3-2.7 0.8 0.6 1.2-1 0.5-0.8 0.7-1.5-0.9-2.8-1.6-4.4-1-3.4-1.1-7.6-0.6-10.7-0.2 0-0.5 0.1-1-0.1-1.1-0.2 0.5-0.8 0.3-0.7 0.3-1.9-1.3-3.8-2.1-5.8-3.2-1.8 0.2-3.5-0.7-4-1.2-1.4-1.3-3-0.6-4.3-0.9-2.8-0.7-3.8-3.6-4.1-5.6-0.2-1-1-1.4-1.3-1.3-1.3-4.2-3.3-8-4.9-11.9-0.4-1-0.3-2-0.3-3.1 0.5 0.2 1 0.1 0.9-0.6-0.5-3.3-1.7-5.8-3-8.2 0.7-3.4 0.8-7.4 2.4-10.4 1.4-2.7 4-4.1 5.8-6.4 0.6-0.8 0.6-1.9 1.2-2.6 2-2 4-4.1 6.2-5.9 1-0.8 2.2 0 3.7-0.3 0.5-1.8 2.5-3.4 4.4-2.9 0.8 0.2 2.4-1.9 2.9-2.1 0.8-0.3 0.4 0.8 0.4 1.5 1.9-1.5 4.5-2.3 6.9-3.2" fill="#efefef" fill-rule="nonzero" stroke="none" stroke-width="1" stroke-linecap="butt" stroke-linejoin="miter" stroke-miterlimit="10" stroke-dasharray="" stroke-dashoffset="0" font-family="none" font-weight="none" font-size="none" text-anchor="none" style="mix-blend-mode: normal" data-fill-palette-color="tertiary"></path>
                            </g>
                            <g transform="matrix(1,0,0,1,64.27195582660593,90)">
                                <svg viewBox="0 0 191.45608834678814 180" height="180" width="191.45608834678814">
                                    <g>
                                        <svg viewBox="0 0 191.45608834678814 180" height="180" width="191.45608834678814">
                                            <g>
                                                <svg viewBox="0 0 192 180.51136580937975" height="180" width="191.45608834678814">
                                                    <g transform="matrix(1,0,0,1,0,109.10440665658095)">
                                                        <svg viewBox="0 0 192 71.40695915279879" height="71.40695915279879" width="192">
                                                            <g id="textblocktransform">
                                                                <svg viewBox="0 0 192 71.40695915279879" height="71.40695915279879" width="192" id="textblock">
                                                                    <g>
                                                                        <svg viewBox="0 0 192 71.40695915279879" height="71.40695915279879" width="192">
                                                                            <g transform="matrix(1,0,0,1,0,0)">
                                                                                <svg width="192" viewBox="1.49 -36.01 96.82000000000001 36.01" height="71.40695915279879" data-palette-color="#efefef">
                                                                                    <path d="M14.99-35.01L20-35.01 33.5 0 28.49 0 25.39-8.06 9.59-8.06 6.49 0 1.49 0 14.99-35.01ZM17.5-28.49L11.5-13.06 23.46-13.06 17.5-28.49ZM53.71-21.19L43.8-21.19 43.8 0 39.01 0 39.01-26 43.8-26 43.8-21.41Q43.85-22.36 44.24-23.21 44.63-24.05 45.27-24.67 45.92-25.29 46.77-25.65 47.63-26 48.61-26L48.61-26 53.71-26Q54.71-26 55.58-25.62 56.44-25.24 57.1-24.6 57.76-23.95 58.14-23.07 58.52-22.19 58.52-21.19L58.52-21.19 58.52-16.8 53.71-16.8 53.71-21.19ZM64.74-26L69.55-26 69.55 0 64.74 0 64.74-26ZM64.5-31.01L64.5-36.01 69.79-36.01 69.79-31.01 64.5-31.01ZM77.29-4.81L93.5-4.81 93.5-10.84 82.1-10.84Q81.1-10.84 80.22-11.22 79.34-11.6 78.69-12.24 78.04-12.89 77.67-13.77 77.29-14.65 77.29-15.65L77.29-15.65 77.29-21.19Q77.29-22.19 77.67-23.07 78.04-23.95 78.69-24.6 79.34-25.24 80.22-25.62 81.1-26 82.1-26L82.1-26 97.31-26 97.31-21.19 82.1-21.19 82.1-15.65 93.5-15.65Q94.5-15.65 95.37-15.27 96.23-14.89 96.89-14.25 97.55-13.6 97.93-12.72 98.31-11.84 98.31-10.84L98.31-10.84 98.31-4.81Q98.31-3.81 97.93-2.93 97.55-2.05 96.89-1.4 96.23-0.76 95.37-0.38 94.5 0 93.5 0L93.5 0 77.29 0 77.29-4.81Z" opacity="1" transform="matrix(1,0,0,1,0,0)" fill="#efefef" class="wordmark-text-0" data-fill-palette-color="primary" id="text-0"></path>
                                                                                </svg>
                                                                            </g>
                                                                        </svg>
                                                                    </g>
                                                                </svg>
                                                            </g>
                                                        </svg>
                                                    </g>
                                                    <g transform="matrix(1,0,0,1,41.700557656531736,0)">
                                                        <svg viewBox="0 0 108.59888468693653 98.68441754916793" height="98.68441754916793" width="108.59888468693653">
                                                            <g>
                                                                <svg xmlns="http://www.w3.org/2000/svg"
                                                                    xmlns:xlink="http://www.w3.org/1999/xlink" version="1.1" x="0" y="0" viewBox="9.888 16.166 80.22399999999999 72.90000018220053" enable-background="new 0 0 100 100" xml:space="preserve" height="98.68441754916793" width="108.59888468693653" class="icon-icon-0" data-fill-palette-color="accent" id="icon-0">
                                                                    <path d="M82.112 16.166H17.888A8 8 0 0 0 9.888 24.166V67.15A8 8 0 0 0 17.888 75.15H38.642L35.118 83.512A4 4 0 0 0 38.805 89.066H61.805A4 4 0 0 0 65.5 83.536L62.027 75.15H82.112A8 8 0 0 0 90.112 67.15V24.166A8 8 0 0 0 82.112 16.166M55.818 81.066H44.83L47.323 75.15H53.369zM82.112 67.15H17.888V24.166H82.113V67.15z" fill="#e0dbc6" data-fill-palette-color="accent"></path>
                                                                </svg>
                                                            </g>
                                                        </svg>
                                                    </g>
                                                    <g></g>
                                                </svg>
                                            </g>
                                        </svg>
                                    </g>
                                </svg>
                            </g>
                        </svg>
                    </g>
                    <defs></defs>
                </svg>
                <rect width="320" height="360" fill="none" stroke="none" visibility="hidden"></rect>
            </g>
        </svg>
    </g>
</svg>